<?xml version="1.0" standalone="yes"?>

<svg version="1.1" viewBox="0.0 0.0 817.5826771653543 617.1417322834645" fill="none" stroke="none" stroke-linecap="square" stroke-miterlimit="10" xmlns="http://www.w3.org/2000/svg" xmlns:xlink="http://www.w3.org/1999/xlink"><clipPath id="p.0"><path d="m0 0l817.5827 0l0 617.1417l-817.5827 0l0 -617.1417z" clip-rule="nonzero"></path></clipPath><g clip-path="url(#p.0)"><path fill="#000000" fill-opacity="0.0" d="m0 0l817.5827 0l0 617.1417l-817.5827 0z" fill-rule="nonzero"></path><path fill="#000000" fill-opacity="0.0" d="m114.244095 64.28346l447.30713 -1.0708656" fill-rule="nonzero"></path><path stroke="#45818e" stroke-width="3.0" stroke-linejoin="round" stroke-linecap="butt" d="m114.244095 64.28346l429.30713 -1.027771" fill-rule="evenodd"></path><path fill="#45818e" stroke="#45818e" stroke-width="3.0" stroke-linecap="butt" d="m543.5631 68.21088l13.602356 -4.9877777l-13.626099 -4.922592z" fill-rule="evenodd"></path><path fill="#000000" fill-opacity="0.0" d="m114.244095 63.212597l1.0708694 447.3071" fill-rule="nonzero"></path><path stroke="#45818e" stroke-width="3.0" stroke-linejoin="round" stroke-linecap="butt" d="m114.244095 63.212597l1.027771 429.30713" fill-rule="evenodd"></path><path fill="#45818e" stroke="#45818e" stroke-width="3.0" stroke-linecap="butt" d="m110.31669 492.5316l4.98777 13.602417l4.922592 -13.626129z" fill-rule="evenodd"></path><path fill="#000000" fill-opacity="0.0" d="m39.034122 33.75853l75.2126 0l0 41.133858l-75.2126 0z" fill-rule="nonzero"></path><path fill="#454497" d="m53.143497 46.787903q-1.28125 2.0 -1.890625 4.125q-0.609375 2.125 -0.609375 4.640625q0 2.53125 0.609375 4.6875q0.609375 2.140625 1.890625 4.203125l-1.234375 0q-1.625 -2.546875 -2.3125 -4.640625q-0.671875 -2.109375 -0.671875 -4.25q0 -2.234375 0.75 -4.515625q0.765625 -2.296875 2.234375 -4.25l1.234375 0zm10.183212 0.421875q1.1249962 0 1.9531212 0.375q0.84375 0.359375 1.40625 1.109375q1.125 1.453125 1.125 5.375q0 1.96875 -0.28125 3.296875q-0.265625 1.3125 -0.84375 2.0625q-0.546875 0.71875 -1.390625 1.109375q-0.84375 0.375 -1.9687462 0.375q-2.25 0 -3.359375 -1.5q-1.125 -1.515625 -1.125 -5.34375q0 -3.875 1.125 -5.359375q1.125 -1.5 3.359375 -1.5zm-2.78125 6.828125q0 1.625 0.171875 2.6875q0.1875 1.0625 0.53125 1.640625q0.71875 1.109375 2.078125 1.109375q1.4999962 0 2.1562462 -1.28125q0.3125 -0.65625 0.453125 -1.671875q0.15625 -1.015625 0.15625 -2.421875q0 -0.46875 -0.015625 -1.046875q0 -0.59375 -0.078125 -1.1875q-0.0625 -0.609375 -0.234375 -1.1875q-0.15625 -0.578125 -0.46875 -1.015625q-0.3125 -0.453125 -0.796875 -0.734375q-0.46875 -0.296875 -1.1874962 -0.296875q-0.640625 0 -1.15625 0.28125q-0.515625 0.265625 -0.875 0.8125q-0.734375 1.109375 -0.734375 4.3125zm11.563213 4.53125l0 2.03125q0 1.046875 -0.515625 1.796875q-0.515625 0.75 -1.578125 1.078125l0 -0.953125q0.5 -0.171875 0.796875 -0.640625q0.3125 -0.453125 0.3125 -1.09375l0 -0.109375l-1.125 0l0 -2.109375l2.109375 0zm6.777054 -11.359375q1.125 0 1.953125 0.375q0.84375 0.359375 1.40625 1.109375q1.125 1.453125 1.125 5.375q0 1.96875 -0.28125 3.296875q-0.265625 1.3125 -0.84375 2.0625q-0.546875 0.71875 -1.390625 1.109375q-0.84375 0.375 -1.96875 0.375q-2.25 0 -3.359375 -1.5q-1.125 -1.515625 -1.125 -5.34375q0 -3.875 1.125 -5.359375q1.125 -1.5 3.359375 -1.5zm-2.78125 6.828125q0 1.625 0.171875 2.6875q0.1875 1.0625 0.53125 1.640625q0.71875 1.109375 2.078125 1.109375q1.5 0 2.15625 -1.28125q0.3125 -0.65625 0.453125 -1.671875q0.15625 -1.015625 0.15625 -2.421875q0 -0.46875 -0.015625 -1.046875q0 -0.59375 -0.078125 -1.1875q-0.0625 -0.609375 -0.234375 -1.1875q-0.15625 -0.578125 -0.46875 -1.015625q-0.3125 -0.453125 -0.796875 -0.734375q-0.46875 -0.296875 -1.1875 -0.296875q-0.640625 0 -1.15625 0.28125q-0.515625 0.265625 -0.875 0.8125q-0.734375 1.109375 -0.734375 4.3125zm14.105896 -7.25q1.515625 2.34375 2.25 4.484375q0.734375 2.125 0.734375 4.40625q0 2.3125 -0.78125 4.5625q-0.765625 2.25 -2.203125 4.203125l-1.234375 0q1.265625 -2.015625 1.875 -4.140625q0.625 -2.125 0.625 -4.625q0 -2.53125 -0.625 -4.6875q-0.609375 -2.15625 -1.875 -4.203125l1.234375 0z" fill-rule="nonzero"></path><path fill="#000000" fill-opacity="0.0" d="m511.82416 23.149607l75.212585 0l0 41.133858l-75.212585 0z" fill-rule="nonzero"></path><path fill="#454497" d="m523.32416 40.241478l2.359375 3.421875l0.015625 0l2.4375 -3.421875l1.9375 0l-3.375 4.53125l3.796875 5.296875l-2.078125 0l-2.734375 -4.0625l-2.734375 4.0625l-1.953125 0l3.6875 -5.171875l-3.421875 -4.65625l2.0625 0z" fill-rule="nonzero"></path><path fill="#000000" fill-opacity="0.0" d="m84.55905 455.85303l75.2126 0l0 41.13385l-75.2126 0z" fill-rule="nonzero"></path><path fill="#454497" d="m95.5278 472.9449l2.875 8.03125l0.03125 0l2.765625 -8.03125l1.71875 0l-4.1875 10.875q-0.65625 1.703125 -1.265625 2.296875q-0.609375 0.59375 -1.671875 0.59375q-0.296875 0 -0.578125 -0.046875q-0.28125 -0.03125 -0.546875 -0.125l0 -1.484375q0.234375 0.078125 0.46875 0.140625q0.234375 0.078125 0.46875 0.078125q0.984375 0 1.375 -0.984375q0.390625 -0.984375 0.625 -1.578125l-3.890625 -9.765625l1.8125 0z" fill-rule="nonzero"></path><path stroke="#9e9e9e" stroke-width="1.0" stroke-linecap="butt" d="m114.244095 62.71391l0 475.46194" fill-rule="nonzero"></path><path stroke="#9e9e9e" stroke-width="1.0" stroke-linecap="butt" d="m317.43045 62.71391l0 475.46194" fill-rule="nonzero"></path><path stroke="#9e9e9e" stroke-width="1.0" stroke-linecap="butt" d="m520.6168 62.71391l0 475.46194" fill-rule="nonzero"></path><path stroke="#9e9e9e" stroke-width="1.0" stroke-linecap="butt" d="m723.80316 62.71391l0 475.46194" fill-rule="nonzero"></path><path stroke="#9e9e9e" stroke-width="1.0" stroke-linecap="butt" d="m113.74541 63.212597l610.5564 0" fill-rule="nonzero"></path><path stroke="#9e9e9e" stroke-width="1.0" stroke-linecap="butt" d="m113.74541 221.36745l610.5564 0" fill-rule="nonzero"></path><path stroke="#9e9e9e" stroke-width="1.0" stroke-linecap="butt" d="m113.74541 379.5223l610.5564 0" fill-rule="nonzero"></path><path stroke="#9e9e9e" stroke-width="1.0" stroke-linecap="butt" d="m113.74541 537.6772l610.5564 0" fill-rule="nonzero"></path><path fill="#000000" fill-opacity="0.0" d="m696.2913 29.267717l97.88977 0l0 41.133858l-97.88977 0z" fill-rule="nonzero"></path><path fill="#454497" d="m710.4007 42.29709q-1.28125 2.0 -1.890625 4.125q-0.609375 2.125 -0.609375 4.640625q0 2.53125 0.609375 4.6875q0.609375 2.140625 1.890625 4.203125l-1.234375 0q-1.625 -2.546875 -2.3125 -4.640625q-0.671875 -2.109375 -0.671875 -4.25q0 -2.234375 0.75 -4.515625q0.765625 -2.296875 2.234375 -4.25l1.234375 0zm9.917603 0.421875q1.9375 0 3.015625 0.96875q1.078125 0.953125 1.078125 2.625q0 0.8125 -0.484375 1.546875q-0.46875 0.71875 -1.375 1.140625l0 0.046875q1.1875 0.265625 1.796875 1.125q0.625 0.84375 0.625 2.140625q0 1.875 -1.296875 3.0q-1.28125 1.109375 -3.328125 1.109375q-2.015625 0 -3.25 -1.125q-1.234375 -1.125 -1.234375 -3.203125l0 -0.078125l1.625 0q0.046875 1.4375 0.8125 2.203125q0.765625 0.765625 2.046875 0.765625q1.25 0 2.078125 -0.71875q0.84375 -0.734375 0.84375 -1.875q0 -1.1875 -0.796875 -1.890625q-0.78125 -0.703125 -2.140625 -0.703125q-0.1875 0 -0.421875 0.015625q-0.234375 0.015625 -0.484375 0.046875l0 -1.359375q0.21875 0.015625 0.59375 0.015625q0.9375 0 1.484375 -0.296875q0.5625 -0.3125 0.875 -0.78125q0.328125 -0.46875 0.328125 -1.125q0 -1.0 -0.65625 -1.578125q-0.640625 -0.59375 -1.734375 -0.59375q-1.1875 0 -1.859375 0.78125q-0.671875 0.765625 -0.703125 2.140625l-1.609375 0q0.109375 -2.09375 1.1875 -3.21875q1.09375 -1.125 2.984375 -1.125zm10.641357 0q1.125 0 1.953125 0.375q0.84375 0.359375 1.40625 1.109375q1.125 1.453125 1.125 5.375q0 1.96875 -0.28125 3.296875q-0.265625 1.3125 -0.84375 2.0625q-0.546875 0.71875 -1.390625 1.109375q-0.84375 0.375 -1.96875 0.375q-2.25 0 -3.359375 -1.5q-1.125 -1.515625 -1.125 -5.34375q0 -3.875 1.125 -5.359375q1.125 -1.5 3.359375 -1.5zm-2.78125 6.828125q0 1.625 0.171875 2.6875q0.1875 1.0625 0.53125 1.640625q0.71875 1.109375 2.078125 1.109375q1.5 0 2.15625 -1.28125q0.3125 -0.65625 0.453125 -1.671875q0.15625 -1.015625 0.15625 -2.421875q0 -0.46875 -0.015625 -1.046875q0 -0.59375 -0.078125 -1.1875q-0.0625 -0.609375 -0.234375 -1.1875q-0.15625 -0.578125 -0.46875 -1.015625q-0.3125 -0.453125 -0.796875 -0.734375q-0.46875 -0.296875 -1.1875 -0.296875q-0.640625 0 -1.15625 0.28125q-0.515625 0.265625 -0.875 0.8125q-0.734375 1.109375 -0.734375 4.3125zm13.156982 -6.828125q1.125 0 1.953125 0.375q0.84375 0.359375 1.40625 1.109375q1.125 1.453125 1.125 5.375q0 1.96875 -0.28125 3.296875q-0.265625 1.3125 -0.84375 2.0625q-0.546875 0.71875 -1.390625 1.109375q-0.84375 0.375 -1.96875 0.375q-2.25 0 -3.359375 -1.5q-1.125 -1.515625 -1.125 -5.34375q0 -3.875 1.125 -5.359375q1.125 -1.5 3.359375 -1.5zm-2.78125 6.828125q0 1.625 0.171875 2.6875q0.1875 1.0625 0.53125 1.640625q0.71875 1.109375 2.078125 1.109375q1.5 0 2.15625 -1.28125q0.3125 -0.65625 0.453125 -1.671875q0.15625 -1.015625 0.15625 -2.421875q0 -0.46875 -0.015625 -1.046875q0 -0.59375 -0.078125 -1.1875q-0.0625 -0.609375 -0.234375 -1.1875q-0.15625 -0.578125 -0.46875 -1.015625q-0.3125 -0.453125 -0.796875 -0.734375q-0.46875 -0.296875 -1.1875 -0.296875q-0.640625 0 -1.15625 0.28125q-0.515625 0.265625 -0.875 0.8125q-0.734375 1.109375 -0.734375 4.3125zm11.563171 4.53125l0 2.03125q0 1.046875 -0.515625 1.796875q-0.515625 0.75 -1.578125 1.078125l0 -0.953125q0.5 -0.171875 0.796875 -0.640625q0.3125 -0.453125 0.3125 -1.09375l0 -0.109375l-1.125 0l0 -2.109375l2.109375 0zm6.7770996 -11.359375q1.125 0 1.953125 0.375q0.84375 0.359375 1.40625 1.109375q1.125 1.453125 1.125 5.375q0 1.96875 -0.28125 3.296875q-0.265625 1.3125 -0.84375 2.0625q-0.546875 0.71875 -1.390625 1.109375q-0.84375 0.375 -1.96875 0.375q-2.25 0 -3.359375 -1.5q-1.125 -1.515625 -1.125 -5.34375q0 -3.875 1.125 -5.359375q1.125 -1.5 3.359375 -1.5zm-2.78125 6.828125q0 1.625 0.171875 2.6875q0.1875 1.0625 0.53125 1.640625q0.71875 1.109375 2.078125 1.109375q1.5 0 2.15625 -1.28125q0.3125 -0.65625 0.453125 -1.671875q0.15625 -1.015625 0.15625 -2.421875q0 -0.46875 -0.015625 -1.046875q0 -0.59375 -0.078125 -1.1875q-0.0625 -0.609375 -0.234375 -1.1875q-0.15625 -0.578125 -0.46875 -1.015625q-0.3125 -0.453125 -0.796875 -0.734375q-0.46875 -0.296875 -1.1875 -0.296875q-0.640625 0 -1.15625 0.28125q-0.515625 0.265625 -0.875 0.8125q-0.734375 1.109375 -0.734375 4.3125zm14.105896 -7.25q1.515625 2.34375 2.25 4.484375q0.734375 2.125 0.734375 4.40625q0 2.3125 -0.78125 4.5625q-0.765625 2.25 -2.203125 4.203125l-1.234375 0q1.265625 -2.015625 1.875 -4.140625q0.625 -2.125 0.625 -4.625q0 -2.53125 -0.625 -4.6875q-0.609375 -2.15625 -1.875 -4.203125l1.234375 0z" fill-rule="nonzero"></path><path fill="#000000" fill-opacity="0.0" d="m32.18635 506.16797l97.889755 0l0 41.13385l-97.889755 0z" fill-rule="nonzero"></path><path fill="#454497" d="m46.295727 519.1973q-1.28125 2.0 -1.890625 4.125q-0.609375 2.125 -0.609375 4.640625q0 2.53125 0.609375 4.6875q0.609375 2.140625 1.890625 4.203125l-1.234375 0q-1.625 -2.546875 -2.3125 -4.640625q-0.671875 -2.109375 -0.671875 -4.25q0 -2.234375 0.75 -4.515625q0.765625 -2.296875 2.234375 -4.25l1.234375 0zm10.183212 0.421875q1.125 0 1.953125 0.375q0.84375 0.359375 1.40625 1.109375q1.125 1.453125 1.125 5.375q0 1.96875 -0.28125 3.296875q-0.265625 1.3125 -0.84375 2.0625q-0.546875 0.71875 -1.390625 1.109375q-0.84375 0.375 -1.96875 0.375q-2.25 0 -3.359375 -1.5q-1.125 -1.515625 -1.125 -5.34375q0 -3.875 1.125 -5.359375q1.125 -1.5 3.359375 -1.5zm-2.78125 6.828125q0 1.625 0.171875 2.6875q0.1875 1.0625 0.53125 1.640625q0.71875 1.109375 2.078125 1.109375q1.5 0 2.15625 -1.28125q0.3125 -0.65625 0.453125 -1.671875q0.15625 -1.015625 0.15625 -2.421875q0 -0.46875 -0.015625 -1.046875q0 -0.59375 -0.078125 -1.1875q-0.0625 -0.609375 -0.234375 -1.1875q-0.15625 -0.578125 -0.46875 -1.015625q-0.3125 -0.453125 -0.796875 -0.734375q-0.46875 -0.296875 -1.1875 -0.296875q-0.640625 0 -1.15625 0.28125q-0.515625 0.265625 -0.875 0.8125q-0.734375 1.109375 -0.734375 4.3125zm11.563213 4.53125l0 2.03125q0 1.046875 -0.515625 1.796875q-0.515625 0.75 -1.5781212 1.078125l0 -0.953125q0.5 -0.171875 0.796875 -0.640625q0.3124962 -0.453125 0.3124962 -1.09375l0 -0.109375l-1.1249962 0l0 -2.109375l2.1093712 0zm6.511429 -11.359375q1.9375 0 3.015625 0.96875q1.078125 0.953125 1.078125 2.625q0 0.8125 -0.484375 1.546875q-0.46875 0.71875 -1.375 1.140625l0 0.046875q1.1875 0.265625 1.796875 1.125q0.625 0.84375 0.625 2.140625q0 1.875 -1.296875 3.0q-1.28125 1.109375 -3.328125 1.109375q-2.015625 0 -3.25 -1.125q-1.234375 -1.125 -1.234375 -3.203125l0 -0.078125l1.625 0q0.046875 1.4375 0.8125 2.203125q0.765625 0.765625 2.046875 0.765625q1.25 0 2.078125 -0.71875q0.84375 -0.734375 0.84375 -1.875q0 -1.1875 -0.796875 -1.890625q-0.78125 -0.703125 -2.140625 -0.703125q-0.1875 0 -0.421875 0.015625q-0.234375 0.015625 -0.484375 0.046875l0 -1.359375q0.21875 0.015625 0.59375 0.015625q0.9375 0 1.484375 -0.296875q0.5625 -0.3125 0.875 -0.78125q0.328125 -0.46875 0.328125 -1.125q0 -1.0 -0.65625 -1.578125q-0.640625 -0.59375 -1.734375 -0.59375q-1.1875 0 -1.859375 0.78125q-0.671875 0.765625 -0.703125 2.140625l-1.609375 0q0.109375 -2.09375 1.1875 -3.21875q1.09375 -1.125 2.984375 -1.125zm10.641342 0q1.125 0 1.953125 0.375q0.84375 0.359375 1.40625 1.109375q1.125 1.453125 1.125 5.375q0 1.96875 -0.28125 3.296875q-0.265625 1.3125 -0.84375 2.0625q-0.546875 0.71875 -1.390625 1.109375q-0.84375 0.375 -1.96875 0.375q-2.25 0 -3.359375 -1.5q-1.125 -1.515625 -1.125 -5.34375q0 -3.875 1.125 -5.359375q1.125 -1.5 3.359375 -1.5zm-2.78125 6.828125q0 1.625 0.171875 2.6875q0.1875 1.0625 0.53125 1.640625q0.71875 1.109375 2.078125 1.109375q1.5 0 2.15625 -1.28125q0.3125 -0.65625 0.453125 -1.671875q0.15625 -1.015625 0.15625 -2.421875q0 -0.46875 -0.015625 -1.046875q0 -0.59375 -0.078125 -1.1875q-0.0625 -0.609375 -0.234375 -1.1875q-0.15625 -0.578125 -0.46875 -1.015625q-0.3125 -0.453125 -0.796875 -0.734375q-0.46875 -0.296875 -1.1875 -0.296875q-0.640625 0 -1.15625 0.28125q-0.515625 0.265625 -0.875 0.8125q-0.734375 1.109375 -0.734375 4.3125zm13.156967 -6.828125q1.125 0 1.953125 0.375q0.84375 0.359375 1.40625 1.109375q1.125 1.453125 1.125 5.375q0 1.96875 -0.28125 3.296875q-0.265625 1.3125 -0.84375 2.0625q-0.546875 0.71875 -1.390625 1.109375q-0.84375 0.375 -1.96875 0.375q-2.25 0 -3.359375 -1.5q-1.125 -1.515625 -1.125 -5.34375q0 -3.875 1.125 -5.359375q1.125 -1.5 3.359375 -1.5zm-2.78125 6.828125q0 1.625 0.171875 2.6875q0.1875 1.0625 0.53125 1.640625q0.71875 1.109375 2.078125 1.109375q1.5 0 2.15625 -1.28125q0.3125 -0.65625 0.453125 -1.671875q0.15625 -1.015625 0.15625 -2.421875q0 -0.46875 -0.015625 -1.046875q0 -0.59375 -0.078125 -1.1875q-0.0625 -0.609375 -0.234375 -1.1875q-0.15625 -0.578125 -0.46875 -1.015625q-0.3125 -0.453125 -0.796875 -0.734375q-0.46875 -0.296875 -1.1875 -0.296875q-0.640625 0 -1.15625 0.28125q-0.515625 0.265625 -0.875 0.8125q-0.734375 1.109375 -0.734375 4.3125zm14.105896 -7.25q1.515625 2.34375 2.25 4.484375q0.734375 2.125 0.734375 4.40625q0 2.3125 -0.78125 4.5625q-0.765625 2.25 -2.203125 4.203125l-1.234375 0q1.265625 -2.015625 1.875 -4.140625q0.625 -2.125 0.625 -4.625q0 -2.53125 -0.625 -4.6875q-0.609375 -2.15625 -1.875 -4.203125l1.234375 0z" fill-rule="nonzero"></path></g></svg>

